<svg width="72" height="72" viewBox="0 0 72 72" fill="none" xmlns="http://www.w3.org/2000/svg">
  <defs>
    <!-- Shadow gradient -->
    <radialGradient id="shadowGrad" cx="0" cy="0" r="1" gradientUnits="userSpaceOnUse" gradientTransform="translate(36.7 32.7) rotate(135) scale(35)">
      <stop offset="0" stop-color="#99421D"/>
      <stop offset="0.333" stop-color="#99161D"/>
      <stop offset="0.666" stop-color="#7D1845"/>
      <stop offset="1" stop-color="#59216E"/>
    </radialGradient>
    
    <!-- Stand gradient (red/magenta) -->
    <radialGradient id="standGrad" cx="0" cy="0" r="1" gradientUnits="userSpaceOnUse" gradientTransform="translate(42.6 27.3) rotate(135) scale(44.5)">
      <stop offset="0" stop-color="#EF7744"/>
      <stop offset="0.333" stop-color="#E50914"/>
      <stop offset="0.666" stop-color="#A70D53"/>
      <stop offset="1" stop-color="#792A95"/>
    </radialGradient>
    
    <!-- Telescope body gradient -->
    <radialGradient id="bodyGrad" cx="0" cy="0" r="1" gradientUnits="userSpaceOnUse" gradientTransform="translate(42.3 29.1) rotate(135) scale(32)">
      <stop offset="0" stop-color="#FB540D"/>
      <stop offset="0.333" stop-color="#E50914"/>
      <stop offset="0.666" stop-color="#A70D53"/>
      <stop offset="1" stop-color="#792A95"/>
    </radialGradient>
    
    <!-- Lens outer gradient (pink) -->
    <radialGradient id="lensOuterGrad" cx="0" cy="0" r="1" gradientUnits="userSpaceOnUse" gradientTransform="translate(57.7 14.7) rotate(134.3) scale(24)">
      <stop offset="0" stop-color="#FFDCCC"/>
      <stop offset="0.333" stop-color="#FFBDC0"/>
      <stop offset="0.666" stop-color="#F89DC6"/>
      <stop offset="1" stop-color="#E4A1FA"/>
    </radialGradient>
    
    <!-- Lens inner gradient (magenta) -->
    <radialGradient id="lensInnerGrad" cx="0" cy="0" r="1" gradientUnits="userSpaceOnUse" gradientTransform="translate(52.1 21.3) rotate(141.9) scale(12)">
      <stop offset="0.307" stop-color="#F89DC6"/>
      <stop offset="0.645" stop-color="#E75094"/>
      <stop offset="1" stop-color="#59216E"/>
    </radialGradient>
    
    <!-- Highlight gradient (white) -->
    <radialGradient id="highlightGrad" cx="0" cy="0" r="1" gradientUnits="userSpaceOnUse" gradientTransform="translate(55.8 15.6) rotate(135) scale(13.2)">
      <stop offset="0" stop-color="white"/>
      <stop offset="1" stop-color="white" stop-opacity="0"/>
    </radialGradient>
    
    <!-- Small highlight -->
    <radialGradient id="smallHighlight" cx="0" cy="0" r="1" gradientUnits="userSpaceOnUse" gradientTransform="translate(49.2 23) rotate(131) scale(6)">
      <stop offset="0" stop-color="white"/>
      <stop offset="1" stop-color="white" stop-opacity="0"/>
    </radialGradient>
    
    <!-- Connection gradient -->
    <radialGradient id="connectionGrad" cx="0" cy="0" r="1" gradientUnits="userSpaceOnUse" gradientTransform="translate(36.9 29.1) rotate(137.6) scale(13.6)">
      <stop offset="0" stop-color="#FFA984"/>
      <stop offset="1" stop-color="#F7636B" stop-opacity="0"/>
    </radialGradient>
    
    <!-- Stars gradient -->
    <linearGradient id="starsGrad" x1="44.65" y1="27.9" x2="24.25" y2="48.3" gradientUnits="userSpaceOnUse">
      <stop offset="0" stop-color="#FFDCCC"/>
      <stop offset="0.333" stop-color="#FFBDC0"/>
      <stop offset="0.666" stop-color="#F89DC6"/>
      <stop offset="1" stop-color="#E4A1FA"/>
    </linearGradient>
  </defs>
  
  <!-- Shadow/base -->
  <path d="M24.05 36.6L33.6 46.39L17.8 56.86C17.8 56.86 15.89 57.7 13.63 55.26C11.36 52.83 12.12 51.24 12.12 51.24L24.05 36.6Z" fill="url(#shadowGrad)"/>
  
  <!-- Stand -->
  <path d="M25.03 34.2L36 46.15L25.06 53.8C25.06 53.8 21.83 55.1 18.1 51.02C14.37 46.94 15.92 44.51 15.92 44.51L25.03 34.2Z" fill="url(#standGrad)"/>
  
  <!-- Telescope body -->
  <path d="M39 13.02L59.1 33.68L32.53 50.41C32.53 50.41 28.75 50.26 24.4 45.49C20.05 40.72 21.41 35.81 21.41 35.81L39 13.02Z" fill="url(#bodyGrad)"/>
  
  <!-- Lens outer circle -->
  <path d="M57.67 15.35C63.1 21.28 63.99 29.29 59.64 33.24C55.29 37.19 47.36 35.58 41.93 29.65C36.5 23.72 35.61 15.71 39.96 11.77C44.31 7.82 52.24 9.42 57.67 15.35Z" fill="url(#lensOuterGrad)"/>
  
  <!-- Lens inner circle -->
  <path d="M58.38 31.26C54.81 34.5 48.21 33.08 43.64 28.08C39.07 23.08 38.25 16.39 41.82 13.14C45.39 9.89 51.99 11.32 56.56 16.32C61.13 21.32 61.95 28.01 58.38 31.26Z" fill="url(#lensInnerGrad)"/>
  
  <!-- Main highlight on lens -->
  <path opacity="0.85" d="M59.68 28.82C60.58 24.18 59.65 20.59 56.16 16.62C52.67 12.65 47.35 10.87 43.78 12.76C39.37 15.1 48.37 13.6 53.46 19.58C57.83 24.72 58.85 33.1 59.68 28.82Z" fill="url(#highlightGrad)"/>
  
  <!-- Small highlight dot -->
  <ellipse opacity="0.4" cx="47.7" cy="24.9" rx="2.7" ry="2.7" transform="rotate(-10 47.7 24.9)" fill="url(#smallHighlight)"/>
  
  <!-- Connection area -->
  <path opacity="0.6" d="M36.92 21L26.43 34.36C26.33 36.46 28.29 39.55 30.03 40.83L41.23 29.91C39.6 28.2 36.96 24.1 36.92 21Z" fill="url(#connectionGrad)"/>
  
  <!-- Stars -->
  <g fill="url(#starsGrad)">
    <!-- Star 1 (top left) -->
    <path d="M20.06 9.6L21.48 11.72L24 11.07L22.36 13.03L23.78 15.14L21.34 14.24L19.7 16.2L19.84 13.68L17.4 12.78L19.92 12.12L20.06 9.6Z"/>
    
    <!-- Star 2 (bottom right) -->
    <path d="M58.78 52.8L58.96 56.47L62.4 57.42L59.08 58.73L59.26 62.4L57.02 59.55L53.7 60.86L55.64 57.78L53.4 54.93L56.84 55.88L58.78 52.8Z"/>
    
    <!-- Star 3 (left middle) -->
    <path d="M15.21 24.21L15.88 21L13.48 23.2L10.69 21.56L12 24.55L9.6 26.75L12.81 26.41L14.12 29.4L14.79 26.19L18 25.85L15.21 24.21Z"/>
  </g>
</svg>